<?xml version="1.0" encoding="UTF-8"?>
<svg xmlns="http://www.w3.org/2000/svg" xmlns:xlink="http://www.w3.org/1999/xlink" viewBox="0 0 300 300">
  <defs>
    <style>
      .cls-1 {
        fill: #f3f3f3;
      }

      .cls-2 {
        fill: #f6f6f6;
      }

      .cls-3 {
        fill: #f9f9f9;
      }

      .cls-4 {
        fill: #f0f0f0;
      }

      .cls-5 {
        fill: #e9e9e9;
      }

      .cls-6 {
        fill: #e6e6e6;
      }

      .cls-7 {
        fill: #fcfcfc;
      }

      .cls-8 {
        fill: #e3e3e3;
      }

      .cls-9, .cls-10 {
        fill: #fff;
      }

      .cls-11 {
        fill: #ececec;
      }

      .cls-12 {
        fill: #969696;
      }

      .cls-13 {
        fill: #999;
      }

      .cls-14 {
        fill: #9c9c9c;
      }

      .cls-15 {
        fill: #9f9f9f;
      }

      .cls-16 {
        fill: #b5b5b5;
      }

      .cls-17 {
        fill: #b8b8b8;
      }

      .cls-18 {
        fill: #909090;
      }

      .cls-19 {
        fill: #c1c1c1;
      }

      .cls-20 {
        fill: #939393;
      }

      .cls-21 {
        fill: #cecece;
      }

      .cls-22 {
        fill: #acacac;
      }

      .cls-23 {
        fill: #a9a9a9;
      }

      .cls-24 {
        fill: #a6a6a6;
      }

      .cls-25 {
        fill: #b2b2b2;
      }

      .cls-26 {
        fill: #bbb;
      }

      .cls-27 {
        fill: #bebebe;
      }

      .cls-28 {
        fill: #ddd;
      }

      .cls-29 {
        fill: #cbcbcb;
      }

      .cls-30 {
        fill: #d1d1d1;
      }

      .cls-31 {
        fill: #c4c4c4;
      }

      .cls-32 {
        fill: #dadada;
      }

      .cls-33 {
        fill: #d4d4d4;
      }

      .cls-34 {
        fill: #afafaf;
      }

      .cls-35 {
        fill: #e0e0e0;
      }

      .cls-36 {
        fill: #d7d7d7;
      }

      .cls-37 {
        fill: #c8c8c8;
      }

      .cls-38 {
        fill: #a3a3a3;
      }

      .cls-10, .cls-39 {
        mix-blend-mode: multiply;
      }

      .cls-40 {
        fill: url(#radial-gradient);
      }

      .cls-41 {
        isolation: isolate;
      }

      .cls-39 {
        opacity: .7;
      }
    </style>
    <radialGradient id="radial-gradient" cx="142.25" cy="-66.46" fx="142.25" fy="-66.46" r="324.65" gradientUnits="userSpaceOnUse">
      <stop offset="0" stop-color="#ff8c00"/>
      <stop offset=".63" stop-color="#ff0c00"/>
      <stop offset="1" stop-color="#c50000"/>
    </radialGradient>
  </defs>
  <g class="cls-41">
    <g id="Layer_1" data-name="Layer 1">
      <g class="cls-39">
        <path class="cls-10" d="M223.61,120.31l-.34-.35c-5.88-6.02-7.76-8.37-9.76-13.42-.06-.15-.13-.3-.19-.45-1.36-3-2.25-5.73-2.71-8.33h0s-.02-.09-.03-.14c-.01-.09-.03-.18-.04-.26-.65-3.86-.26-7.36,1.18-10.71,1.62-3.75,.72-8.11-2.25-10.91-1.84-1.74-4.25-2.65-6.68-2.65-1.48,0-2.96,.33-4.34,1.03-6.18,3.09-11.51,7.43-15.74,12.69,5.07-26.53,6.94-59.94-24.98-81.85-1.66-1.14-3.58-1.71-5.5-1.71-2.29,0-4.57,.81-6.39,2.4-3.34,2.91-4.28,7.72-2.3,11.68,3.42,6.8,4.41,14.53,2.88,22.34-3.04,15.48-13.64,29.4-23.89,42.87l-.56,.74-2.28,2.98c-5.93,7.73-12.06,15.73-16.67,24.82-1.02,2.02-1.93,4.03-2.73,6.03-1.21-.57-2.57-.9-3.99-.93-.05,0-.11,0-.17,0-.32,0-.64,.02-.96,.05-1.39,.14-2.69,.56-3.85,1.22-.42,.23-.85,.49-1.3,.77-.06,.04-.12,.08-.18,.12-1.61,1.05-3.18,2.39-4.78,4.08-20.95,19.3-32.98,46.72-32.98,75.25,0,56.44,45.92,102.36,102.36,102.36s102.34-45.92,102.34-102.36c0-43.5-22.39-66.35-33.16-77.33Z"/>
        <path class="cls-7" d="M223.38,120.22l-.34-.35c-5.88-6.02-7.78-8.37-9.76-13.42-.06-.15-.13-.3-.19-.45-1.36-3-2.25-5.73-2.71-8.33h0s-.02-.09-.03-.14c-.01-.09-.03-.18-.04-.26-.62-3.87-.26-7.36,1.18-10.71,1.62-3.75,.72-8.11-2.25-10.91-1.84-1.74-4.25-2.65-6.68-2.65-1.48,0-2.96,.33-4.34,1.03-6.18,3.09-11.51,7.43-15.74,12.69,5.07-26.53,6.94-59.94-24.98-81.85-1.66-1.14-3.58-1.71-5.5-1.71-2.29,0-4.57,.81-6.39,2.4-3.34,2.91-4.28,7.72-2.3,11.68,3.42,6.8,4.41,14.53,2.88,22.34-3.04,15.48-13.64,29.4-23.89,42.87l-.56,.74-2.28,2.98c-5.93,7.73-12.06,15.73-16.67,24.82-1.02,2.02-1.93,4.03-2.73,6.03-1.21-.57-2.57-.89-3.99-.93-.05,0-.11,0-.17,0-.32,0-.64,.02-.96,.05-1.39,.14-2.69,.57-3.85,1.22-.42,.23-.85,.49-1.3,.77-.06,.04-.12,.08-.18,.12-1.6,1.07-3.18,2.39-4.78,4.08-20.95,19.3-32.98,46.72-32.98,75.25,0,56.44,45.92,102.36,102.36,102.36s102.34-45.92,102.34-102.36c0-43.5-22.39-66.35-33.16-77.33Z"/>
        <path class="cls-3" d="M223.15,120.13l-.34-.35c-5.88-6.02-7.78-8.37-9.76-13.42-.06-.15-.13-.3-.19-.45-1.36-3-2.25-5.73-2.71-8.33h0s-.02-.09-.03-.14c-.01-.09-.03-.18-.04-.26-.62-3.87-.26-7.36,1.18-10.71,1.62-3.75,.72-8.11-2.25-10.91-1.84-1.74-4.25-2.65-6.68-2.65-1.48,0-2.96,.33-4.34,1.03-6.18,3.09-11.51,7.43-15.74,12.69,5.07-26.53,6.94-59.94-24.98-81.85-1.66-1.14-3.58-1.71-5.5-1.71-2.29,0-4.57,.81-6.39,2.4-3.34,2.91-4.29,7.72-2.3,11.68,3.42,6.8,4.41,14.53,2.88,22.34-3.04,15.48-13.64,29.4-23.89,42.87l-.56,.74-2.28,2.98c-5.93,7.73-12.06,15.73-16.67,24.82-1.02,2.02-1.93,4.03-2.73,6.03-1.21-.57-2.57-.89-3.99-.93-.05,0-.11,0-.17,0-.32,0-.64,.02-.96,.05-1.39,.14-2.69,.57-3.85,1.22-.42,.23-.85,.49-1.3,.77-.06,.04-.12,.08-.18,.12-1.6,1.07-3.18,2.39-4.78,4.08-20.95,19.3-32.98,46.72-32.98,75.25,0,56.44,45.92,102.36,102.36,102.36s102.34-45.92,102.34-102.36c0-43.5-22.39-66.35-33.16-77.33Z"/>
        <path class="cls-2" d="M222.93,120.04l-.34-.35c-5.88-6.02-7.77-8.37-9.76-13.42-.06-.15-.13-.3-.19-.45-1.36-3-2.25-5.73-2.71-8.33h0s-.02-.09-.03-.14c-.01-.09-.03-.18-.04-.26-.62-3.87-.26-7.36,1.18-10.71,1.62-3.75,.72-8.11-2.25-10.91-1.84-1.74-4.25-2.65-6.68-2.65-1.48,0-2.96,.33-4.34,1.03-6.18,3.09-11.51,7.43-15.74,12.69,5.07-26.53,6.94-59.94-24.98-81.85-1.66-1.14-3.58-1.71-5.5-1.71-2.29,0-4.57,.81-6.39,2.4-3.34,2.91-4.29,7.72-2.3,11.68,3.42,6.8,4.41,14.53,2.88,22.34-3.04,15.48-13.64,29.4-23.89,42.87l-.56,.74-2.28,2.98c-5.93,7.73-12.06,15.73-16.67,24.82-1.02,2.02-1.93,4.03-2.73,6.03-1.21-.57-2.57-.89-3.99-.93-.05,0-.11,0-.17,0-.32,0-.64,.02-.96,.05-1.39,.14-2.69,.57-3.85,1.22-.42,.23-.85,.49-1.3,.77-.06,.04-.12,.08-.18,.12-1.6,1.07-3.18,2.39-4.78,4.08-20.95,19.3-32.98,46.72-32.98,75.25,0,56.44,45.92,102.36,102.36,102.36s102.34-45.92,102.34-102.36c0-43.5-22.39-66.35-33.16-77.33Z"/>
        <path class="cls-1" d="M222.7,119.95l-.34-.35c-5.88-6.02-7.77-8.37-9.76-13.42-.06-.15-.13-.3-.19-.45-1.36-3-2.25-5.73-2.71-8.33h0s-.02-.09-.03-.14c-.01-.09-.03-.18-.04-.26-.62-3.87-.26-7.36,1.18-10.71,1.62-3.75,.72-8.11-2.25-10.91-1.84-1.74-4.25-2.66-6.68-2.66-1.48,0-2.96,.33-4.34,1.03-6.18,3.09-11.51,7.43-15.74,12.69,5.07-26.53,6.94-59.94-24.98-81.85-1.66-1.14-3.58-1.71-5.5-1.71-2.29,0-4.57,.81-6.39,2.4-3.34,2.91-4.29,7.72-2.3,11.68,3.42,6.8,4.41,14.53,2.88,22.34-3.04,15.48-13.64,29.4-23.89,42.87l-.56,.74-2.28,2.98c-5.93,7.73-12.06,15.73-16.67,24.82-1.02,2.02-1.93,4.03-2.73,6.03-1.21-.57-2.57-.89-3.99-.93-.05,0-.11,0-.17,0-.32,0-.64,.02-.96,.05-1.39,.14-2.69,.57-3.85,1.22-.42,.23-.85,.49-1.3,.77-.06,.04-.12,.08-.18,.12-1.6,1.07-3.18,2.39-4.78,4.08-20.95,19.3-32.98,46.72-32.98,75.25,0,56.44,45.92,102.36,102.36,102.36s102.34-45.92,102.34-102.36c0-43.5-22.39-66.35-33.16-77.33Z"/>
        <path class="cls-4" d="M222.47,119.86l-.34-.35c-5.88-6.02-7.76-8.37-9.76-13.42-.06-.15-.13-.3-.19-.45-1.36-3-2.25-5.73-2.71-8.33h0s-.02-.09-.03-.14c-.01-.09-.03-.18-.04-.26-.62-3.87-.26-7.36,1.18-10.71,1.62-3.75,.72-8.11-2.25-10.91-1.84-1.74-4.25-2.66-6.68-2.66-1.48,0-2.96,.33-4.34,1.03-6.18,3.09-11.51,7.43-15.74,12.69,5.07-26.53,6.94-59.94-24.98-81.85-1.66-1.14-3.58-1.71-5.5-1.71-2.29,0-4.57,.81-6.39,2.4-3.34,2.91-4.29,7.72-2.3,11.68,3.42,6.8,4.41,14.53,2.88,22.34-3.04,15.48-13.64,29.4-23.89,42.87l-.56,.74-2.28,2.98c-5.93,7.73-12.06,15.73-16.67,24.82-1.02,2.02-1.93,4.03-2.73,6.03-1.21-.57-2.57-.89-3.99-.93-.05,0-.11,0-.17,0-.32,0-.64,.02-.96,.05-1.39,.14-2.69,.57-3.85,1.22-.42,.23-.85,.49-1.3,.77-.06,.04-.12,.08-.18,.12-1.6,1.06-3.18,2.39-4.78,4.08-20.95,19.3-32.98,46.72-32.98,75.25,0,56.44,45.92,102.36,102.36,102.36s102.34-45.92,102.34-102.36c0-43.5-22.39-66.35-33.16-77.33Z"/>
        <path class="cls-11" d="M222.24,119.77l-.34-.35c-5.88-6.02-7.76-8.37-9.76-13.42-.06-.15-.13-.3-.19-.45-1.36-3-2.25-5.73-2.71-8.33h0s-.02-.09-.03-.14c-.01-.09-.03-.18-.04-.26-.62-3.87-.26-7.36,1.18-10.71,1.62-3.75,.72-8.11-2.25-10.91-1.84-1.74-4.25-2.66-6.68-2.66-1.48,0-2.96,.33-4.34,1.03-6.18,3.09-11.51,7.43-15.74,12.69,5.07-26.53,6.94-59.94-24.98-81.85-1.66-1.14-3.58-1.71-5.5-1.71-2.29,0-4.57,.81-6.39,2.4-3.34,2.91-4.29,7.72-2.3,11.68,3.42,6.8,4.41,14.53,2.88,22.34-3.04,15.48-13.64,29.4-23.89,42.87l-.56,.74-2.28,2.98c-5.93,7.73-12.06,15.73-16.67,24.82-1.02,2.02-1.93,4.03-2.73,6.03-1.21-.57-2.57-.89-3.99-.93-.05,0-.11,0-.17,0-.32,0-.64,.02-.96,.05-1.39,.14-2.69,.57-3.85,1.22-.42,.24-.85,.49-1.3,.77-.06,.04-.12,.08-.18,.12-1.6,1.06-3.18,2.39-4.78,4.08-20.95,19.3-32.98,46.72-32.98,75.25,0,56.44,45.92,102.36,102.36,102.36s102.34-45.92,102.34-102.36c0-43.5-22.39-66.35-33.16-77.33Z"/>
        <path class="cls-5" d="M222.01,119.68l-.34-.35c-5.88-6.02-7.76-8.37-9.76-13.42-.06-.15-.13-.3-.19-.45-1.36-3-2.25-5.73-2.71-8.33h0s-.02-.09-.03-.14c-.01-.09-.03-.18-.04-.26-.62-3.87-.26-7.36,1.18-10.71,1.62-3.75,.72-8.11-2.25-10.91-1.84-1.74-4.25-2.66-6.68-2.66-1.48,0-2.96,.33-4.34,1.03-6.18,3.09-11.51,7.43-15.74,12.69,5.07-26.53,6.94-59.94-24.98-81.85-1.66-1.14-3.58-1.71-5.5-1.71-2.29,0-4.57,.81-6.39,2.4-3.34,2.91-4.29,7.72-2.3,11.68,3.42,6.8,4.41,14.53,2.88,22.34-3.04,15.48-13.64,29.4-23.89,42.87l-.56,.74-2.28,2.98c-5.93,7.73-12.06,15.73-16.67,24.82-1.02,2.02-1.93,4.03-2.73,6.03-1.21-.57-2.57-.89-3.99-.93-.05,0-.11,0-.17,0-.32,0-.64,.02-.96,.05-1.39,.14-2.69,.57-3.85,1.22-.42,.24-.85,.49-1.3,.77-.06,.04-.12,.08-.18,.12-1.6,1.06-3.18,2.39-4.78,4.08-20.95,19.3-32.98,46.72-32.98,75.25,0,56.44,45.92,102.36,102.36,102.36s102.34-45.92,102.34-102.36c0-43.5-22.39-66.35-33.16-77.33Z"/>
        <path class="cls-6" d="M221.78,119.59l-.34-.35c-5.88-6.02-7.76-8.37-9.76-13.42-.06-.15-.13-.3-.19-.45-1.36-3-2.25-5.73-2.71-8.33h0s-.02-.09-.03-.14c-.01-.09-.03-.18-.04-.26-.62-3.87-.26-7.36,1.18-10.71,1.62-3.75,.72-8.11-2.25-10.91-1.84-1.74-4.25-2.66-6.68-2.66-1.48,0-2.96,.33-4.34,1.03-6.18,3.09-11.51,7.43-15.74,12.69,5.07-26.53,6.94-59.94-24.98-81.85-1.66-1.14-3.58-1.71-5.5-1.71-2.29,0-4.57,.81-6.39,2.4-3.34,2.91-4.29,7.72-2.3,11.68,3.42,6.8,4.41,14.53,2.88,22.34-3.04,15.48-13.64,29.4-23.89,42.87l-.56,.74-2.28,2.98c-5.93,7.73-12.06,15.73-16.67,24.82-1.02,2.02-1.93,4.03-2.73,6.03-1.21-.57-2.57-.89-3.99-.93-.05,0-.11,0-.17,0-.32,0-.64,.02-.96,.05-1.39,.14-2.69,.57-3.85,1.22-.42,.24-.85,.49-1.3,.77-.06,.04-.12,.08-.18,.12-1.6,1.06-3.18,2.39-4.78,4.08-20.95,19.3-32.98,46.72-32.98,75.25,0,56.44,45.92,102.36,102.36,102.36s102.34-45.92,102.34-102.36c0-43.5-22.39-66.35-33.16-77.33Z"/>
        <path class="cls-8" d="M221.55,119.5l-.34-.35c-5.88-6.02-7.76-8.37-9.76-13.42-.06-.15-.13-.3-.19-.45-1.36-3-2.25-5.73-2.71-8.33h0s-.02-.09-.03-.14c-.01-.09-.03-.18-.04-.26-.62-3.87-.26-7.36,1.18-10.71,1.62-3.75,.72-8.11-2.25-10.91-1.84-1.74-4.25-2.66-6.68-2.66-1.48,0-2.96,.33-4.34,1.03-6.18,3.09-11.51,7.43-15.74,12.69,5.07-26.53,6.94-59.94-24.98-81.85-1.66-1.14-3.58-1.71-5.5-1.71-2.29,0-4.57,.81-6.39,2.4-3.34,2.91-4.29,7.72-2.3,11.68,3.42,6.8,4.41,14.53,2.88,22.34-3.04,15.48-13.64,29.4-23.89,42.87l-.56,.74-2.28,2.98c-5.93,7.73-12.06,15.73-16.67,24.82-1.02,2.02-1.93,4.03-2.73,6.03-1.21-.57-2.57-.89-3.99-.93-.05,0-.11,0-.17,0-.32,0-.64,.02-.96,.05-1.39,.14-2.69,.57-3.85,1.22-.42,.24-.85,.49-1.3,.77-.06,.04-.12,.08-.18,.12-1.6,1.06-3.18,2.39-4.78,4.08-20.95,19.3-32.98,46.72-32.98,75.25,0,56.44,45.92,102.36,102.36,102.36s102.34-45.92,102.34-102.36c0-43.5-22.39-66.35-33.16-77.33Z"/>
        <path class="cls-35" d="M221.33,119.41l-.34-.35c-5.88-6.02-7.76-8.37-9.76-13.42-.06-.15-.13-.3-.19-.45-1.36-3-2.25-5.73-2.71-8.33h0s-.02-.09-.03-.14c-.01-.09-.03-.18-.04-.26-.62-3.87-.26-7.36,1.18-10.71,1.62-3.75,.72-8.11-2.25-10.91-1.84-1.74-4.25-2.66-6.68-2.66-1.48,0-2.96,.33-4.34,1.03-6.18,3.09-11.51,7.43-15.74,12.69,5.07-26.53,6.94-59.94-24.98-81.85-1.66-1.14-3.58-1.71-5.5-1.71-2.29,0-4.57,.81-6.39,2.4-3.34,2.91-4.29,7.72-2.3,11.68,3.42,6.8,4.41,14.53,2.88,22.34-3.04,15.48-13.64,29.4-23.89,42.87l-.56,.74-2.28,2.98c-5.93,7.73-12.06,15.73-16.67,24.82-1.02,2.02-1.93,4.03-2.73,6.03-1.21-.57-2.57-.89-3.99-.93-.05,0-.11,0-.17,0-.32,0-.64,.02-.96,.05-1.39,.14-2.69,.57-3.85,1.22-.42,.24-.85,.49-1.3,.77-.06,.04-.12,.08-.18,.12-1.6,1.06-3.18,2.39-4.78,4.08-20.95,19.3-32.98,46.72-32.98,75.25,0,56.44,45.92,102.36,102.36,102.36s102.34-45.92,102.34-102.36c0-43.49-22.39-66.35-33.16-77.33Z"/>
        <path class="cls-28" d="M221.1,119.32l-.34-.35c-5.88-6.02-7.76-8.37-9.76-13.42-.06-.15-.13-.3-.19-.45-1.36-3-2.25-5.73-2.71-8.33h0s-.02-.09-.03-.14c-.01-.09-.03-.18-.04-.26-.62-3.87-.26-7.36,1.18-10.71,1.62-3.75,.72-8.11-2.25-10.91-1.84-1.74-4.25-2.66-6.68-2.66-1.48,0-2.96,.33-4.34,1.03-6.18,3.09-11.51,7.43-15.74,12.69,5.07-26.53,6.94-59.94-24.98-81.85-1.66-1.14-3.58-1.71-5.5-1.71-2.29,0-4.57,.81-6.39,2.4-3.34,2.91-4.29,7.72-2.3,11.68,3.42,6.8,4.41,14.53,2.88,22.34-3.04,15.48-13.64,29.4-23.89,42.87l-.56,.74-2.28,2.98c-5.93,7.73-12.06,15.73-16.67,24.82-1.02,2.02-1.93,4.03-2.73,6.03-1.21-.57-2.57-.89-3.99-.93-.05,0-.11,0-.17,0-.32,0-.64,.02-.96,.05-1.39,.14-2.69,.57-3.85,1.22-.42,.24-.85,.49-1.3,.77-.06,.04-.12,.08-.18,.12-1.6,1.06-3.18,2.39-4.78,4.08-20.95,19.3-32.98,46.72-32.98,75.25,0,56.44,45.92,102.36,102.36,102.36s102.34-45.92,102.34-102.36c0-43.49-22.39-66.35-33.16-77.33Z"/>
        <path class="cls-32" d="M220.87,119.23l-.34-.35c-5.88-6.02-7.76-8.37-9.76-13.42-.06-.15-.13-.3-.19-.45-1.37-3-2.25-5.73-2.71-8.33h0s-.02-.09-.03-.14c-.01-.09-.03-.18-.04-.26-.62-3.87-.26-7.36,1.18-10.71,1.62-3.75,.72-8.11-2.25-10.91-1.84-1.74-4.25-2.66-6.68-2.66-1.48,0-2.96,.33-4.34,1.03-6.18,3.09-11.51,7.43-15.74,12.69,5.07-26.53,6.94-59.94-24.98-81.85-1.66-1.14-3.58-1.71-5.5-1.71-2.29,0-4.57,.81-6.39,2.4-3.34,2.91-4.29,7.72-2.3,11.68,3.42,6.8,4.41,14.53,2.88,22.34-3.04,15.48-13.64,29.4-23.89,42.87l-.56,.74-2.28,2.98c-5.93,7.73-12.06,15.73-16.67,24.82-1.02,2.02-1.93,4.03-2.73,6.03-1.21-.57-2.57-.89-3.99-.93-.05,0-.11,0-.17,0-.32,0-.64,.02-.96,.05-1.39,.14-2.69,.57-3.85,1.22-.42,.24-.85,.49-1.3,.77-.06,.04-.12,.08-.18,.12-1.6,1.06-3.18,2.39-4.78,4.08-20.95,19.3-32.98,46.72-32.98,75.25,0,56.44,45.92,102.36,102.36,102.36s102.34-45.92,102.34-102.36c0-43.49-22.39-66.35-33.16-77.33Z"/>
        <path class="cls-36" d="M220.64,119.14l-.34-.35c-5.88-6.02-7.76-8.37-9.76-13.42-.06-.15-.13-.3-.19-.45-1.37-3-2.25-5.73-2.71-8.33h0s-.02-.09-.03-.14c-.01-.09-.03-.18-.04-.26-.62-3.87-.26-7.36,1.18-10.71,1.62-3.75,.72-8.11-2.25-10.91-1.84-1.74-4.25-2.66-6.68-2.66-1.48,0-2.96,.33-4.34,1.03-6.18,3.09-11.51,7.43-15.74,12.69,5.07-26.53,6.94-59.94-24.99-81.85-1.66-1.14-3.58-1.71-5.5-1.71-2.29,0-4.57,.81-6.39,2.4-3.34,2.91-4.29,7.72-2.3,11.68,3.42,6.8,4.41,14.53,2.88,22.34-3.04,15.48-13.64,29.4-23.89,42.87l-.56,.74-2.28,2.98c-5.93,7.73-12.06,15.73-16.67,24.82-1.02,2.02-1.93,4.03-2.73,6.03-1.21-.57-2.57-.89-3.99-.93-.05,0-.11,0-.17,0-.32,0-.64,.02-.96,.05-1.39,.14-2.69,.57-3.85,1.22-.42,.24-.85,.49-1.3,.77-.06,.04-.12,.08-.18,.12-1.6,1.06-3.18,2.39-4.78,4.08-20.95,19.3-32.98,46.72-32.98,75.25,0,56.44,45.92,102.36,102.36,102.36s102.34-45.92,102.34-102.36c0-43.49-22.39-66.35-33.16-77.33Z"/>
        <path class="cls-33" d="M220.41,119.05l-.34-.35c-5.88-6.02-7.76-8.37-9.76-13.42-.06-.15-.13-.3-.19-.45-1.37-3-2.25-5.73-2.71-8.33h0s-.02-.09-.03-.14c-.01-.09-.03-.18-.04-.26-.62-3.87-.26-7.36,1.18-10.71,1.62-3.75,.72-8.11-2.25-10.91-1.84-1.74-4.25-2.66-6.68-2.66-1.48,0-2.96,.33-4.34,1.03-6.18,3.09-11.51,7.43-15.74,12.69,5.07-26.53,6.94-59.94-24.99-81.85-1.66-1.14-3.58-1.71-5.5-1.71-2.29,0-4.57,.81-6.39,2.4-3.34,2.91-4.29,7.72-2.3,11.68,3.42,6.8,4.41,14.53,2.88,22.34-3.04,15.48-13.64,29.4-23.89,42.87l-.56,.74-2.28,2.98c-5.93,7.73-12.06,15.73-16.67,24.82-1.02,2.02-1.93,4.03-2.73,6.03-1.21-.57-2.57-.89-3.99-.93-.05,0-.11,0-.17,0-.32,0-.64,.02-.96,.05-1.39,.14-2.69,.57-3.85,1.22-.42,.24-.85,.49-1.3,.77-.06,.04-.12,.08-.18,.12-1.6,1.06-3.18,2.39-4.78,4.08-20.95,19.3-32.98,46.72-32.98,75.25,0,56.44,45.92,102.36,102.35,102.36s102.34-45.92,102.34-102.36c0-43.49-22.39-66.35-33.16-77.33Z"/>
        <path class="cls-30" d="M220.18,118.96l-.34-.35c-5.88-6.02-7.76-8.37-9.76-13.42-.06-.15-.13-.3-.19-.45-1.37-3-2.25-5.73-2.71-8.33h0s-.02-.09-.03-.14c-.01-.09-.03-.18-.04-.26-.62-3.87-.26-7.36,1.18-10.71,1.62-3.75,.72-8.11-2.25-10.91-1.84-1.74-4.25-2.66-6.68-2.66-1.48,0-2.96,.33-4.34,1.03-6.18,3.09-11.51,7.43-15.74,12.69,5.07-26.53,6.94-59.94-24.99-81.85-1.66-1.14-3.58-1.71-5.5-1.71-2.29,0-4.57,.81-6.39,2.4-3.34,2.91-4.29,7.72-2.3,11.68,3.41,6.8,4.41,14.53,2.88,22.34-3.04,15.48-13.64,29.4-23.89,42.87l-.56,.74-2.28,2.98c-5.93,7.73-12.06,15.73-16.67,24.82-1.02,2.02-1.93,4.03-2.73,6.03-1.21-.57-2.57-.89-3.99-.93-.05,0-.11,0-.17,0-.32,0-.64,.02-.96,.05-1.39,.14-2.69,.57-3.85,1.22-.42,.24-.85,.49-1.3,.77-.06,.04-.12,.08-.18,.12-1.6,1.06-3.18,2.39-4.78,4.08-20.95,19.3-32.98,46.72-32.98,75.25,0,56.44,45.92,102.36,102.35,102.36s102.34-45.92,102.34-102.36c0-43.49-22.39-66.35-33.16-77.33Z"/>
        <path class="cls-21" d="M219.95,118.87l-.34-.35c-5.88-6.02-7.76-8.37-9.76-13.42-.06-.15-.13-.3-.19-.45-1.37-3-2.25-5.73-2.71-8.33h0s-.02-.09-.03-.14c-.01-.09-.03-.18-.04-.26-.62-3.87-.26-7.36,1.18-10.71,1.62-3.75,.72-8.11-2.25-10.91-1.84-1.74-4.25-2.66-6.68-2.66-1.48,0-2.96,.33-4.34,1.03-6.18,3.09-11.51,7.43-15.74,12.69,5.07-26.53,6.94-59.94-24.99-81.85-1.66-1.14-3.58-1.71-5.5-1.71-2.29,0-4.57,.81-6.39,2.4-3.34,2.91-4.29,7.72-2.3,11.68,3.41,6.8,4.41,14.53,2.88,22.34-3.04,15.48-13.64,29.4-23.89,42.87l-.56,.74-2.28,2.98c-5.93,7.73-12.06,15.73-16.67,24.82-1.02,2.02-1.93,4.03-2.73,6.03-1.21-.57-2.57-.89-3.99-.93-.05,0-.11,0-.17,0-.32,0-.64,.02-.96,.05-1.39,.14-2.69,.57-3.85,1.22-.42,.24-.85,.49-1.3,.77-.06,.04-.12,.08-.18,.12-1.61,1.06-3.18,2.39-4.78,4.08-20.95,19.3-32.98,46.72-32.98,75.25,0,56.44,45.92,102.36,102.35,102.36s102.34-45.92,102.34-102.36c0-43.49-22.39-66.35-33.16-77.33Z"/>
        <path class="cls-29" d="M219.72,118.78l-.34-.35c-5.88-6.02-7.76-8.37-9.76-13.42-.06-.15-.13-.3-.19-.45-1.37-3-2.25-5.73-2.71-8.33h0s-.02-.09-.03-.14c-.01-.09-.03-.18-.04-.26-.62-3.87-.26-7.36,1.18-10.71,1.62-3.75,.72-8.11-2.25-10.91-1.84-1.74-4.25-2.66-6.68-2.66-1.48,0-2.96,.33-4.34,1.03-6.18,3.09-11.51,7.43-15.74,12.69,5.07-26.53,6.94-59.94-24.99-81.85-1.66-1.14-3.58-1.71-5.5-1.71-2.29,0-4.57,.81-6.39,2.4-3.34,2.91-4.29,7.72-2.3,11.68,3.41,6.8,4.41,14.53,2.88,22.34-3.04,15.48-13.64,29.4-23.89,42.87l-.56,.74-2.28,2.98c-5.93,7.73-12.06,15.73-16.67,24.82-1.02,2.02-1.93,4.03-2.73,6.03-1.21-.57-2.57-.89-3.99-.93-.06,0-.11,0-.17,0-.32,0-.64,.02-.96,.05-1.39,.14-2.69,.57-3.85,1.22-.42,.24-.85,.49-1.3,.77-.06,.04-.12,.08-.18,.12-1.61,1.06-3.18,2.39-4.78,4.08-20.95,19.3-32.98,46.72-32.98,75.25,0,56.44,45.92,102.36,102.35,102.36s102.34-45.92,102.34-102.36c0-43.49-22.39-66.35-33.16-77.33Z"/>
        <path class="cls-37" d="M219.5,118.69l-.34-.35c-5.88-6.02-7.76-8.37-9.76-13.42-.06-.15-.13-.3-.19-.45-1.37-3-2.25-5.73-2.71-8.33h0s-.02-.09-.03-.14c-.01-.09-.03-.18-.04-.26-.62-3.87-.26-7.36,1.18-10.71,1.62-3.75,.72-8.11-2.25-10.91-1.84-1.74-4.25-2.66-6.68-2.66-1.48,0-2.96,.33-4.34,1.03-6.18,3.09-11.51,7.43-15.74,12.69,5.07-26.53,6.94-59.94-24.99-81.85-1.66-1.14-3.58-1.71-5.5-1.71-2.29,0-4.57,.81-6.39,2.4-3.34,2.91-4.29,7.72-2.3,11.68,3.41,6.8,4.41,14.53,2.88,22.34-3.04,15.48-13.64,29.4-23.89,42.87l-.56,.74-2.28,2.98c-5.93,7.73-12.06,15.73-16.67,24.82-1.02,2.02-1.93,4.03-2.73,6.03-1.21-.57-2.57-.89-3.99-.93-.06,0-.11,0-.17,0-.32,0-.64,.02-.96,.05-1.39,.14-2.69,.57-3.85,1.22-.42,.24-.85,.49-1.3,.77-.06,.04-.12,.08-.18,.12-1.61,1.06-3.18,2.39-4.78,4.08-20.95,19.3-32.98,46.72-32.98,75.25,0,56.44,45.92,102.36,102.35,102.36s102.34-45.92,102.34-102.36c0-43.49-22.39-66.35-33.16-77.33Z"/>
        <path class="cls-31" d="M219.27,118.6l-.34-.35c-5.88-6.02-7.76-8.37-9.76-13.42-.06-.15-.13-.3-.19-.45-1.38-3-2.25-5.73-2.71-8.33h0s-.02-.09-.03-.14c-.01-.09-.03-.18-.04-.26-.62-3.87-.26-7.36,1.18-10.71,1.62-3.75,.72-8.11-2.25-10.91-1.84-1.74-4.25-2.66-6.68-2.66-1.48,0-2.96,.33-4.34,1.03-6.18,3.09-11.51,7.43-15.74,12.69,5.07-26.53,6.94-59.94-24.99-81.85-1.66-1.14-3.58-1.71-5.5-1.71-2.29,0-4.57,.81-6.39,2.4-3.34,2.91-4.29,7.72-2.3,11.68,3.41,6.8,4.41,14.53,2.88,22.34-3.04,15.48-13.64,29.4-23.89,42.87l-.56,.74-2.28,2.98c-5.93,7.73-12.06,15.73-16.67,24.82-1.02,2.02-1.93,4.03-2.73,6.03-1.21-.57-2.57-.89-3.99-.93-.06,0-.11,0-.17,0-.32,0-.64,.02-.96,.05-1.39,.14-2.69,.57-3.85,1.22-.42,.24-.85,.49-1.3,.77-.06,.04-.12,.08-.18,.12-1.61,1.06-3.18,2.39-4.78,4.08-20.95,19.3-32.98,46.72-32.98,75.25,0,56.44,45.92,102.36,102.35,102.36s102.34-45.92,102.34-102.36c0-43.49-22.39-66.35-33.16-77.33Z"/>
        <path class="cls-19" d="M219.04,118.51l-.34-.35c-5.88-6.02-7.76-8.37-9.76-13.42-.06-.15-.13-.3-.19-.45-1.38-3-2.25-5.73-2.71-8.33h0s-.02-.09-.03-.14c-.01-.09-.03-.18-.04-.26-.62-3.87-.26-7.36,1.18-10.71,1.62-3.75,.72-8.11-2.25-10.91-1.84-1.74-4.25-2.66-6.68-2.66-1.48,0-2.96,.33-4.34,1.03-6.18,3.09-11.51,7.43-15.74,12.69,5.07-26.53,6.94-59.94-24.99-81.85-1.66-1.14-3.58-1.71-5.5-1.71-2.29,0-4.57,.81-6.39,2.4-3.34,2.91-4.29,7.72-2.3,11.68,3.41,6.8,4.41,14.53,2.88,22.34-3.04,15.48-13.64,29.4-23.89,42.87l-.56,.74-2.28,2.98c-5.93,7.73-12.06,15.73-16.67,24.82-1.02,2.02-1.93,4.03-2.73,6.03-1.21-.57-2.57-.89-3.99-.93-.06,0-.11,0-.17,0-.32,0-.64,.02-.96,.05-1.39,.14-2.69,.57-3.85,1.22-.42,.24-.85,.49-1.3,.77-.06,.04-.12,.08-.18,.12-1.61,1.05-3.18,2.39-4.78,4.08-20.95,19.3-32.98,46.72-32.98,75.25,0,56.44,45.92,102.36,102.35,102.36s102.34-45.92,102.34-102.36c0-43.49-22.39-66.35-33.16-77.33Z"/>
        <path class="cls-27" d="M218.81,118.42l-.34-.35c-5.88-6.02-7.76-8.37-9.76-13.42-.06-.15-.13-.3-.19-.45-1.38-3-2.25-5.73-2.71-8.33h0s-.02-.09-.03-.14c-.01-.09-.03-.18-.04-.26-.62-3.87-.26-7.36,1.18-10.71,1.62-3.75,.72-8.11-2.25-10.91-1.84-1.74-4.25-2.66-6.68-2.66-1.48,0-2.96,.33-4.34,1.03-6.18,3.09-11.51,7.43-15.74,12.69,5.07-26.53,6.94-59.94-24.99-81.85-1.66-1.14-3.58-1.71-5.5-1.71-2.29,0-4.57,.81-6.39,2.4-3.34,2.91-4.29,7.72-2.3,11.68,3.41,6.8,4.41,14.53,2.88,22.34-3.04,15.48-13.64,29.4-23.89,42.87l-.56,.74-2.28,2.98c-5.93,7.73-12.06,15.73-16.67,24.82-1.02,2.02-1.93,4.03-2.73,6.03-1.21-.57-2.57-.89-3.99-.93-.06,0-.11,0-.17,0-.32,0-.64,.02-.96,.05-1.39,.14-2.69,.57-3.85,1.22-.42,.24-.85,.49-1.3,.77-.06,.04-.12,.08-.18,.12-1.61,1.05-3.18,2.39-4.78,4.08-20.95,19.3-32.98,46.72-32.98,75.25,0,56.44,45.92,102.36,102.35,102.36s102.34-45.92,102.34-102.36c0-43.49-22.39-66.35-33.16-77.33Z"/>
        <path class="cls-26" d="M218.58,118.33l-.34-.35c-5.88-6.02-7.76-8.37-9.76-13.42-.06-.15-.13-.3-.19-.45-1.38-3-2.25-5.73-2.71-8.33h0s-.02-.09-.03-.14c-.01-.09-.03-.18-.04-.26-.62-3.87-.26-7.36,1.18-10.71,1.62-3.75,.72-8.11-2.25-10.91-1.84-1.74-4.25-2.66-6.68-2.66-1.48,0-2.96,.33-4.34,1.03-6.18,3.09-11.51,7.43-15.74,12.69,5.07-26.53,6.94-59.94-24.99-81.85-1.66-1.14-3.58-1.71-5.5-1.71-2.29,0-4.57,.81-6.39,2.4-3.34,2.91-4.29,7.72-2.3,11.68,3.41,6.8,4.41,14.53,2.88,22.34-3.04,15.48-13.64,29.4-23.89,42.87l-.56,.74-2.28,2.98c-5.93,7.73-12.06,15.73-16.67,24.82-1.02,2.02-1.93,4.03-2.73,6.03-1.21-.57-2.57-.89-3.99-.93-.06,0-.11,0-.17,0-.32,0-.64,.02-.96,.05-1.39,.14-2.69,.57-3.85,1.22-.42,.24-.85,.49-1.3,.77-.06,.04-.12,.08-.18,.12-1.61,1.05-3.18,2.39-4.78,4.08-20.95,19.3-32.98,46.72-32.98,75.25,0,56.44,45.92,102.36,102.35,102.36s102.34-45.92,102.34-102.36c0-43.49-22.39-66.35-33.16-77.33Z"/>
        <path class="cls-17" d="M218.35,118.24l-.34-.35c-5.88-6.02-7.76-8.37-9.76-13.42-.06-.15-.13-.3-.19-.45-1.38-3-2.25-5.73-2.71-8.33h0s-.02-.09-.03-.14c-.01-.09-.03-.18-.04-.26-.62-3.87-.26-7.36,1.18-10.71,1.62-3.75,.72-8.11-2.25-10.91-1.84-1.74-4.25-2.66-6.68-2.66-1.48,0-2.96,.33-4.34,1.03-6.18,3.09-11.51,7.43-15.74,12.69,5.07-26.53,6.94-59.94-24.99-81.85-1.66-1.14-3.58-1.71-5.5-1.71-2.29,0-4.57,.81-6.39,2.4-3.34,2.91-4.29,7.72-2.3,11.68,3.41,6.8,4.41,14.53,2.88,22.34-3.04,15.48-13.64,29.4-23.89,42.87l-.56,.74-2.28,2.98c-5.93,7.73-12.06,15.73-16.67,24.82-1.02,2.02-1.93,4.03-2.73,6.03-1.21-.57-2.57-.89-3.99-.93-.06,0-.11,0-.17,0-.32,0-.64,.02-.96,.05-1.39,.14-2.69,.57-3.85,1.22-.42,.24-.85,.49-1.3,.77-.06,.04-.12,.08-.18,.12-1.61,1.05-3.18,2.39-4.78,4.08-20.95,19.3-32.98,46.72-32.98,75.25,0,56.44,45.92,102.36,102.35,102.36s102.34-45.92,102.34-102.36c0-43.49-22.39-66.35-33.16-77.33Z"/>
        <path class="cls-16" d="M218.12,118.15l-.34-.35c-5.88-6.02-7.76-8.37-9.76-13.42-.06-.15-.13-.3-.19-.45-1.38-3-2.25-5.73-2.71-8.33h0s-.02-.09-.03-.14c-.01-.09-.03-.18-.04-.26-.62-3.87-.26-7.36,1.18-10.71,1.62-3.75,.72-8.11-2.25-10.91-1.84-1.74-4.25-2.66-6.68-2.66-1.48,0-2.96,.33-4.34,1.03-6.18,3.09-11.51,7.43-15.74,12.69,5.07-26.53,6.94-59.94-24.99-81.85-1.66-1.14-3.58-1.71-5.5-1.71-2.29,0-4.57,.81-6.39,2.39-3.34,2.91-4.29,7.72-2.3,11.68,3.41,6.8,4.41,14.53,2.88,22.34-3.04,15.48-13.64,29.4-23.89,42.87l-.56,.74-2.28,2.98c-5.93,7.73-12.06,15.73-16.67,24.82-1.02,2.02-1.93,4.03-2.73,6.03-1.21-.57-2.57-.89-3.99-.93-.06,0-.11,0-.17,0-.32,0-.64,.02-.96,.05-1.39,.14-2.69,.57-3.85,1.22-.42,.24-.85,.49-1.3,.77-.06,.04-.12,.08-.18,.12-1.61,1.05-3.18,2.39-4.78,4.08-20.95,19.3-32.98,46.72-32.98,75.25,0,56.44,45.92,102.36,102.35,102.36s102.34-45.92,102.34-102.36c0-43.49-22.39-66.35-33.16-77.33Z"/>
        <path class="cls-25" d="M217.89,118.06l-.34-.35c-5.88-6.02-7.76-8.37-9.76-13.42-.06-.15-.13-.3-.19-.45-1.38-3-2.25-5.73-2.71-8.33h0s-.02-.09-.03-.14c-.01-.09-.03-.18-.04-.26-.62-3.87-.26-7.36,1.18-10.71,1.62-3.75,.72-8.11-2.25-10.91-1.84-1.74-4.25-2.66-6.68-2.66-1.48,0-2.96,.33-4.34,1.03-6.18,3.09-11.51,7.43-15.74,12.69,5.07-26.53,6.94-59.94-24.99-81.85-1.66-1.14-3.58-1.71-5.5-1.71-2.29,0-4.57,.81-6.39,2.39-3.34,2.91-4.29,7.72-2.3,11.68,3.41,6.8,4.41,14.53,2.88,22.34-3.04,15.48-13.64,29.4-23.89,42.87l-.56,.74-2.28,2.98c-5.93,7.73-12.06,15.73-16.67,24.82-1.02,2.02-1.93,4.03-2.73,6.03-1.21-.57-2.57-.89-3.99-.93-.06,0-.11,0-.17,0-.32,0-.64,.02-.96,.05-1.39,.14-2.69,.57-3.85,1.22-.42,.24-.85,.49-1.3,.77-.06,.04-.12,.08-.18,.12-1.61,1.05-3.18,2.39-4.78,4.08-20.95,19.3-32.98,46.72-32.98,75.25,0,56.44,45.92,102.36,102.35,102.36s102.34-45.92,102.34-102.36c0-43.49-22.39-66.35-33.16-77.33Z"/>
        <path class="cls-34" d="M217.67,117.97l-.34-.35c-5.88-6.02-7.76-8.37-9.76-13.42-.06-.15-.13-.3-.19-.45-1.38-3-2.25-5.73-2.71-8.33h0s-.02-.09-.03-.14c-.01-.09-.03-.18-.04-.27-.62-3.87-.26-7.36,1.18-10.71,1.62-3.75,.72-8.11-2.25-10.91-1.84-1.74-4.25-2.66-6.68-2.66-1.48,0-2.96,.33-4.34,1.03-6.18,3.09-11.51,7.43-15.74,12.69,5.07-26.53,6.94-59.94-24.99-81.85-1.66-1.14-3.58-1.71-5.5-1.71-2.29,0-4.57,.81-6.39,2.39-3.34,2.91-4.29,7.72-2.3,11.68,3.41,6.8,4.41,14.53,2.88,22.34-3.04,15.48-13.64,29.4-23.89,42.87l-.56,.74-2.28,2.98c-5.93,7.73-12.06,15.73-16.67,24.82-1.02,2.02-1.93,4.03-2.73,6.03-1.21-.57-2.57-.89-3.99-.93-.06,0-.11,0-.17,0-.32,0-.64,.02-.96,.05-1.39,.14-2.69,.57-3.85,1.22-.42,.24-.85,.49-1.3,.77-.06,.04-.12,.08-.18,.12-1.61,1.05-3.18,2.39-4.78,4.08-20.95,19.3-32.98,46.72-32.98,75.25,0,56.44,45.92,102.36,102.35,102.36s102.34-45.92,102.34-102.36c0-43.49-22.39-66.35-33.16-77.33Z"/>
        <path class="cls-22" d="M217.44,117.88l-.34-.35c-5.88-6.02-7.76-8.37-9.76-13.42-.06-.15-.13-.3-.19-.45-1.38-3-2.25-5.73-2.71-8.33h0s-.02-.09-.03-.14c-.01-.09-.03-.18-.04-.27-.62-3.87-.26-7.36,1.18-10.71,1.62-3.75,.72-8.11-2.25-10.91-1.84-1.74-4.25-2.66-6.68-2.66-1.48,0-2.96,.33-4.34,1.03-6.18,3.09-11.51,7.43-15.74,12.69,5.07-26.53,6.94-59.94-24.99-81.85-1.66-1.14-3.58-1.7-5.5-1.7-2.29,0-4.57,.81-6.39,2.39-3.34,2.91-4.29,7.72-2.3,11.68,3.41,6.8,4.41,14.53,2.88,22.34-3.04,15.48-13.64,29.4-23.89,42.87l-.56,.74-2.28,2.98c-5.93,7.73-12.06,15.73-16.67,24.82-1.02,2.02-1.93,4.03-2.73,6.03-1.21-.57-2.57-.89-3.99-.93-.06,0-.11,0-.17,0-.32,0-.64,.02-.96,.05-1.39,.14-2.69,.57-3.85,1.22-.42,.24-.85,.49-1.3,.77-.06,.04-.12,.08-.18,.12-1.61,1.05-3.18,2.39-4.78,4.08-20.95,19.3-32.98,46.72-32.98,75.25,0,56.44,45.92,102.36,102.35,102.36s102.34-45.92,102.34-102.36c0-43.49-22.4-66.35-33.16-77.33Z"/>
        <path class="cls-23" d="M217.21,117.79l-.34-.35c-5.88-6.02-7.76-8.37-9.76-13.42-.06-.15-.13-.3-.19-.45-1.38-3-2.25-5.73-2.71-8.33h0s-.02-.09-.03-.14c-.01-.09-.03-.18-.04-.27-.62-3.87-.26-7.36,1.18-10.71,1.62-3.75,.72-8.11-2.25-10.91-1.84-1.74-4.25-2.66-6.68-2.66-1.47,0-2.96,.33-4.34,1.03-6.18,3.09-11.51,7.43-15.74,12.69,5.07-26.53,6.94-59.94-24.99-81.85-1.66-1.14-3.58-1.7-5.5-1.7-2.29,0-4.57,.81-6.39,2.39-3.34,2.91-4.29,7.72-2.3,11.68,3.41,6.8,4.41,14.53,2.88,22.34-3.04,15.48-13.64,29.4-23.89,42.87l-.56,.74-2.28,2.98c-5.93,7.73-12.06,15.73-16.67,24.82-1.02,2.02-1.93,4.03-2.73,6.03-1.21-.57-2.57-.89-3.99-.93-.06,0-.11,0-.17,0-.32,0-.64,.02-.96,.05-1.39,.14-2.69,.57-3.85,1.22-.42,.24-.85,.49-1.3,.77-.06,.04-.12,.08-.18,.12-1.61,1.05-3.18,2.39-4.78,4.08-20.95,19.3-32.98,46.72-32.98,75.25,0,56.44,45.92,102.36,102.35,102.36s102.34-45.92,102.34-102.36c0-43.49-22.4-66.35-33.16-77.33Z"/>
        <path class="cls-24" d="M216.98,117.7l-.34-.35c-5.88-6.02-7.76-8.37-9.76-13.42-.06-.15-.13-.3-.19-.45-1.38-3-2.25-5.73-2.71-8.33h0s-.02-.09-.03-.14c-.01-.09-.03-.18-.04-.27-.62-3.87-.26-7.36,1.18-10.71,1.62-3.75,.72-8.11-2.25-10.91-1.84-1.74-4.25-2.66-6.68-2.66-1.47,0-2.96,.33-4.34,1.03-6.18,3.09-11.51,7.43-15.74,12.69,5.07-26.53,6.94-59.94-24.99-81.85-1.66-1.14-3.58-1.7-5.5-1.7-2.29,0-4.57,.81-6.39,2.39-3.34,2.91-4.29,7.72-2.3,11.68,3.41,6.8,4.41,14.53,2.88,22.34-3.04,15.48-13.64,29.4-23.89,42.87l-.56,.74-2.28,2.98c-5.93,7.73-12.06,15.73-16.67,24.82-1.02,2.02-1.93,4.03-2.73,6.03-1.21-.57-2.57-.89-3.99-.93-.06,0-.11,0-.17,0-.32,0-.64,.02-.96,.05-1.39,.14-2.69,.57-3.85,1.22-.42,.24-.85,.49-1.3,.77-.06,.04-.12,.08-.18,.12-1.61,1.05-3.18,2.39-4.78,4.08-20.95,19.3-32.98,46.72-32.98,75.25,0,56.44,45.92,102.36,102.35,102.36s102.34-45.92,102.34-102.36c0-43.49-22.4-66.35-33.16-77.33Z"/>
        <path class="cls-38" d="M216.75,117.61l-.34-.35c-5.88-6.02-7.76-8.37-9.76-13.42-.06-.15-.13-.3-.19-.45-1.38-3-2.25-5.73-2.71-8.33h0s-.02-.09-.03-.14c-.01-.09-.03-.18-.04-.27-.62-3.87-.26-7.36,1.18-10.71,1.62-3.75,.72-8.11-2.25-10.91-1.84-1.74-4.25-2.66-6.68-2.66-1.47,0-2.96,.33-4.34,1.03-6.18,3.09-11.51,7.43-15.74,12.69,5.07-26.53,6.94-59.94-24.99-81.85-1.66-1.14-3.58-1.7-5.5-1.7-2.29,0-4.57,.81-6.39,2.39-3.34,2.91-4.29,7.72-2.3,11.68,3.41,6.8,4.41,14.53,2.88,22.34-3.04,15.48-13.64,29.4-23.89,42.87l-.56,.74-2.28,2.98c-5.93,7.73-12.06,15.73-16.67,24.82-1.02,2.02-1.93,4.03-2.73,6.03-1.21-.57-2.57-.89-3.99-.93-.06,0-.11,0-.17,0-.32,0-.64,.02-.96,.05-1.39,.14-2.69,.57-3.85,1.22-.42,.24-.85,.49-1.3,.77-.06,.04-.12,.08-.18,.12-1.61,1.05-3.18,2.39-4.78,4.08-20.95,19.3-32.98,46.72-32.98,75.25,0,56.44,45.92,102.36,102.35,102.36s102.34-45.92,102.34-102.36c0-43.49-22.4-66.35-33.16-77.33Z"/>
        <path class="cls-15" d="M216.52,117.52l-.34-.35c-5.88-6.02-7.76-8.37-9.76-13.42-.06-.15-.13-.3-.19-.45-1.38-3-2.25-5.73-2.71-8.33h0s-.02-.09-.03-.14c-.01-.09-.03-.18-.04-.27-.62-3.87-.26-7.36,1.18-10.71,1.62-3.75,.72-8.11-2.25-10.91-1.84-1.74-4.25-2.66-6.68-2.66-1.47,0-2.96,.33-4.34,1.03-6.18,3.09-11.51,7.43-15.74,12.69,5.07-26.53,6.94-59.94-24.99-81.85-1.66-1.14-3.58-1.7-5.5-1.7-2.29,0-4.57,.81-6.39,2.39-3.34,2.92-4.29,7.72-2.3,11.68,3.41,6.8,4.41,14.53,2.88,22.34-3.04,15.48-13.64,29.4-23.89,42.87l-.56,.74-2.28,2.98c-5.93,7.73-12.06,15.73-16.67,24.82-1.02,2.02-1.93,4.03-2.73,6.03-1.21-.57-2.57-.89-3.99-.93-.06,0-.11,0-.17,0-.32,0-.64,.02-.96,.05-1.39,.14-2.69,.57-3.85,1.22-.42,.24-.85,.49-1.3,.77-.06,.04-.12,.08-.18,.12-1.61,1.05-3.18,2.39-4.78,4.08-20.95,19.3-32.98,46.72-32.98,75.25,0,56.44,45.92,102.36,102.35,102.36s102.34-45.92,102.34-102.36c0-43.49-22.4-66.35-33.16-77.33Z"/>
        <path class="cls-14" d="M216.29,117.43l-.34-.35c-5.88-6.02-7.75-8.38-9.76-13.42-.06-.15-.13-.3-.19-.45-1.38-3-2.25-5.73-2.71-8.33h0s-.02-.09-.03-.14c-.01-.09-.03-.18-.04-.27-.62-3.87-.26-7.36,1.18-10.71,1.62-3.75,.72-8.11-2.25-10.91-1.84-1.74-4.25-2.66-6.68-2.66-1.47,0-2.96,.33-4.34,1.03-6.18,3.09-11.51,7.43-15.74,12.69,5.07-26.53,6.94-59.94-24.99-81.85-1.66-1.14-3.58-1.7-5.5-1.7-2.29,0-4.57,.81-6.39,2.39-3.34,2.92-4.29,7.72-2.3,11.68,3.41,6.8,4.41,14.53,2.88,22.34-3.04,15.48-13.64,29.4-23.89,42.87l-.56,.74-2.28,2.98c-5.93,7.73-12.06,15.73-16.67,24.82-1.02,2.02-1.93,4.03-2.73,6.03-1.21-.57-2.57-.89-3.99-.93-.06,0-.11,0-.17,0-.32,0-.64,.02-.96,.05-1.39,.14-2.69,.57-3.85,1.22-.42,.24-.85,.49-1.3,.77-.06,.04-.12,.08-.18,.12-1.61,1.05-3.18,2.39-4.78,4.08-20.95,19.3-32.98,46.72-32.98,75.25,0,56.44,45.92,102.36,102.35,102.36s102.34-45.92,102.34-102.36c0-43.49-22.4-66.35-33.16-77.33Z"/>
        <path class="cls-13" d="M216.07,117.34l-.34-.35c-5.88-6.02-7.75-8.38-9.76-13.42-.06-.15-.13-.3-.19-.45-1.38-3-2.25-5.73-2.71-8.33h0s-.02-.09-.03-.14c-.01-.09-.03-.18-.04-.27-.62-3.87-.26-7.36,1.18-10.71,1.62-3.75,.72-8.11-2.25-10.91-1.84-1.74-4.25-2.66-6.68-2.66-1.47,0-2.96,.33-4.34,1.03-6.18,3.09-11.51,7.43-15.74,12.69,5.07-26.53,6.94-59.94-24.99-81.85-1.66-1.14-3.58-1.7-5.5-1.7-2.29,0-4.57,.81-6.39,2.39-3.34,2.92-4.29,7.72-2.3,11.68,3.41,6.8,4.41,14.53,2.88,22.34-3.04,15.48-13.64,29.4-23.89,42.87l-.56,.74-2.28,2.98c-5.93,7.73-12.06,15.73-16.67,24.82-1.02,2.02-1.93,4.03-2.73,6.03-1.21-.57-2.57-.89-3.99-.93-.06,0-.11,0-.17,0-.32,0-.64,.02-.96,.05-1.39,.14-2.69,.57-3.85,1.22-.42,.24-.85,.49-1.3,.77-.06,.04-.12,.08-.18,.12-1.61,1.05-3.18,2.39-4.78,4.08-20.95,19.3-32.98,46.72-32.98,75.25,0,56.44,45.92,102.36,102.35,102.36s102.34-45.92,102.34-102.36c0-43.49-22.4-66.35-33.16-77.33Z"/>
        <path class="cls-12" d="M215.84,117.25l-.34-.35c-5.88-6.02-7.75-8.38-9.76-13.42-.06-.15-.13-.3-.19-.45-1.38-3-2.25-5.73-2.71-8.33h0s-.02-.09-.03-.14c-.01-.09-.03-.18-.04-.27-.62-3.87-.26-7.36,1.18-10.71,1.62-3.75,.72-8.11-2.25-10.91-1.84-1.74-4.25-2.66-6.68-2.66-1.47,0-2.96,.33-4.34,1.03-6.18,3.09-11.51,7.43-15.74,12.69,5.07-26.53,6.94-59.94-24.99-81.85-1.66-1.14-3.58-1.7-5.5-1.7-2.29,0-4.57,.81-6.39,2.39-3.34,2.92-4.29,7.72-2.3,11.68,3.41,6.8,4.41,14.53,2.88,22.34-3.04,15.48-13.64,29.4-23.89,42.87l-.56,.74-2.28,2.98c-5.93,7.73-12.06,15.73-16.67,24.82-1.02,2.02-1.93,4.03-2.73,6.03-1.21-.57-2.57-.89-3.99-.93-.06,0-.11,0-.17,0-.32,0-.64,.02-.96,.05-1.39,.14-2.69,.57-3.85,1.22-.42,.24-.85,.49-1.3,.77-.06,.04-.12,.08-.18,.12-1.61,1.05-3.18,2.39-4.78,4.08-20.95,19.3-32.98,46.72-32.98,75.25,0,56.44,45.92,102.36,102.35,102.36s102.34-45.92,102.34-102.36c0-43.49-22.4-66.35-33.16-77.33Z"/>
        <path class="cls-20" d="M215.61,117.16l-.34-.35c-5.88-6.02-7.75-8.38-9.76-13.42-.06-.15-.13-.3-.19-.45-1.39-3-2.25-5.73-2.71-8.33h0s-.02-.09-.03-.14c-.01-.09-.03-.18-.04-.27-.62-3.87-.26-7.36,1.18-10.71,1.62-3.75,.72-8.11-2.25-10.91-1.84-1.75-4.25-2.66-6.68-2.66-1.47,0-2.96,.33-4.34,1.03-6.18,3.09-11.51,7.43-15.74,12.69,5.07-26.53,6.94-59.94-24.99-81.85-1.66-1.14-3.58-1.7-5.5-1.7-2.29,0-4.57,.81-6.39,2.39-3.34,2.92-4.29,7.72-2.3,11.68,3.41,6.8,4.41,14.53,2.88,22.34-3.04,15.48-13.64,29.4-23.89,42.87l-.56,.74-2.28,2.98c-5.93,7.73-12.06,15.73-16.67,24.82-1.02,2.02-1.93,4.03-2.73,6.03-1.21-.57-2.57-.89-3.99-.93-.06,0-.11,0-.17,0-.32,0-.64,.02-.96,.05-1.39,.14-2.69,.57-3.85,1.22-.42,.24-.85,.49-1.3,.77-.06,.04-.12,.08-.18,.12-1.61,1.04-3.18,2.39-4.78,4.08-20.95,19.3-32.98,46.72-32.98,75.25,0,56.44,45.92,102.36,102.35,102.36s102.34-45.92,102.34-102.36c0-43.49-22.4-66.35-33.16-77.33Z"/>
        <path class="cls-18" d="M215.38,117.07l-.34-.35c-5.88-6.02-7.76-8.37-9.76-13.42-.06-.15-.13-.3-.19-.45-1.36-3-2.25-5.73-2.71-8.33h0s-.02-.09-.03-.14c-.01-.09-.03-.18-.04-.27-.65-3.86-.26-7.36,1.18-10.71,1.62-3.75,.72-8.11-2.25-10.91-1.84-1.75-4.25-2.66-6.68-2.66-1.47,0-2.96,.33-4.34,1.03-6.18,3.09-11.51,7.43-15.74,12.69,5.07-26.53,6.94-59.94-24.99-81.85-1.66-1.14-3.58-1.7-5.5-1.7-2.29,0-4.57,.81-6.39,2.39-3.34,2.92-4.29,7.72-2.3,11.68,3.41,6.8,4.41,14.53,2.88,22.34-3.04,15.48-13.64,29.4-23.89,42.87l-.56,.74-2.28,2.98c-5.93,7.73-12.06,15.73-16.67,24.82-1.02,2.02-1.93,4.03-2.73,6.03-1.21-.57-2.57-.9-3.99-.93-.06,0-.11,0-.17,0-.32,0-.64,.02-.96,.05-1.39,.14-2.69,.56-3.85,1.22-.42,.23-.85,.49-1.3,.77-.06,.04-.12,.08-.18,.12-1.61,1.05-3.18,2.39-4.78,4.08-20.95,19.3-32.98,46.72-32.98,75.25,0,56.44,45.92,102.36,102.35,102.36s102.34-45.92,102.34-102.36c0-43.49-22.4-66.35-33.16-77.33Z"/>
      </g>
      <g>
        <path class="cls-40" d="M146.2,291.9c-53.76,0-97.5-43.74-97.5-97.5,0-27.21,11.5-53.37,31.54-71.79,1.38-1.47,2.7-2.61,4.02-3.47,.52-.33,.94-.57,1.34-.79,.72-.39,1.51-.57,2.29-.57,1.31,0,2.61,.53,3.55,1.54,1.5,1.61,1.74,4.02,.57,5.89-3.2,5.13-3.81,11.92-1.65,18.64,.83,2.6,2.02,5.06,3.51,7.33-1.08-5.18-1.53-10.89-1.32-17.02,.28-8.05,2.42-15.95,6.56-24.15,4.41-8.7,10.4-16.51,16.19-24.06l2.85-3.73c10.59-13.9,21.53-28.28,24.8-44.88,1.74-8.88,.6-17.68-3.3-25.45-.99-1.98-.52-4.38,1.15-5.84,.91-.79,2.05-1.2,3.2-1.2,.96,0,1.92,.28,2.75,.85,34.93,23.97,26.38,62.29,20.13,90.27-.61,2.72-1.2,5.35-1.72,7.88-1.23,5.87-1.85,9.97-2.02,13.29-.54,10.31,4.5,16.65,10.91,20.78-1.91-3.99-3.36-8.15-4.31-12.4-1.5-6.86-1.56-13.72-.17-20.39,2.76-13.15,11.08-24.06,22.82-29.93,.69-.34,1.44-.51,2.17-.51,1.22,0,2.42,.45,3.34,1.33,1.48,1.4,1.93,3.58,1.12,5.46-1.82,4.23-2.32,8.63-1.51,13.44,.01,.08,.07,.45,.07,.45,.53,3.01,1.54,6.12,3.07,9.49,2.37,5.98,4.67,8.89,10.91,15.27l.34,.35c10.31,10.52,31.77,32.42,31.77,73.93,0,53.76-43.73,97.5-97.48,97.5Z"/>
        <path class="cls-9" d="M144,9.72c35.46,24.33,22.23,65.19,16.4,93.15-1.08,5.17-1.91,9.92-2.12,14.03-1.35,25.79,27.26,30.82,28.62,31.84,.02,.02,.03,.04,.05,.06,0-.02-.02-.04-.05-.06-5.99-6.9-10.42-15.31-12.43-24.27-1.36-6.19-1.38-12.44-.15-18.33,2.35-11.21,9.26-21.09,20.24-26.58-2.35,5.45-2.73,10.87-1.84,16.17t0,.04c.02,.13,.04,.26,.06,.38,.02,.02,.02,.04,.02,.07,.64,3.6,1.85,7.16,3.44,10.66,2.63,6.66,5.45,10.11,11.85,16.65,10.19,10.41,30.72,30.91,30.72,70.88,0,51.16-41.48,92.64-92.62,92.64s-92.64-41.48-92.64-92.64c0-27.05,11.59-51.38,30.07-68.31,0,0,.02-.02,.04-.04,1.12-1.21,2.2-2.16,3.24-2.84,.34-.21,.66-.4,.97-.57-8.96,14.35-1.12,36.96,19.37,45.44,.02,0,.03,.01,.04,.01,.39,0-10.77-8.37-9.9-33.75,.28-8.05,2.61-15.32,6.04-22.12,4.77-9.41,11.64-17.93,18.01-26.3,10.87-14.29,22.72-29.61,26.26-47.62,1.91-9.73,.74-19.67-3.73-28.57h0Zm-56.1,112.92h0ZM144,0c-2.29,0-4.57,.81-6.39,2.39-3.34,2.92-4.29,7.72-2.3,11.68,3.41,6.8,4.41,14.53,2.88,22.34-3.04,15.48-13.64,29.4-23.89,42.87l-.56,.74-2.28,2.98c-5.93,7.73-12.06,15.73-16.67,24.82-1.02,2.02-1.93,4.03-2.73,6.03-1.21-.57-2.57-.9-3.99-.93-.06,0-.11,0-.17,0-.32,0-.64,.02-.96,.05-1.39,.14-2.69,.56-3.85,1.22-.42,.23-.85,.49-1.3,.77-.06,.04-.12,.08-.18,.12-1.61,1.05-3.18,2.39-4.78,4.08-20.95,19.3-32.98,46.72-32.98,75.25,0,56.44,45.92,102.36,102.35,102.36s102.34-45.92,102.34-102.36c0-43.49-22.4-66.35-33.16-77.33l-.34-.35c-5.88-6.02-7.76-8.37-9.76-13.42-.06-.15-.13-.3-.19-.45-1.36-3-2.25-5.73-2.71-8.33h0s-.02-.09-.03-.14c-.01-.09-.03-.18-.04-.27-.65-3.86-.26-7.36,1.18-10.71,1.62-3.75,.72-8.11-2.25-10.91-1.84-1.75-4.25-2.66-6.68-2.66-1.47,0-2.96,.33-4.34,1.03-6.18,3.09-11.51,7.43-15.74,12.69,5.07-26.53,6.94-59.94-24.99-81.85-1.66-1.14-3.58-1.7-5.5-1.7h0Z"/>
      </g>
      <g>
        <path class="cls-9" d="M89.31,260.42v-82.35h12.54v33.32h11.23v-33.32h12.54v82.35h-12.54v-38.28h-11.23v38.28h-12.54Z"/>
        <path class="cls-9" d="M169.04,255.42c-2.87,3.97-7.46,5.94-13.78,5.94s-10.95-1.99-13.89-5.96c-2.95-3.98-4.43-9.98-4.43-17.99v-37.67c0-15.09,6.16-22.65,18.48-22.65,6.36,0,10.94,1.92,13.73,5.76,2.79,3.84,4.19,9.47,4.19,16.89v37.67c0,8.04-1.44,14.05-4.3,18.02Zm-18.37-7.78c.74,1.91,2.24,2.86,4.52,2.86s3.78-.98,4.5-2.93c.71-1.94,1.07-5.29,1.07-10.04v-38.37c0-3.9-.37-6.74-1.1-8.54-.74-1.79-2.17-2.69-4.3-2.69s-3.64,.9-4.49,2.69c-.86,1.8-1.29,4.62-1.29,8.49v38.42c0,4.84,.37,8.21,1.1,10.1Z"/>
        <path class="cls-9" d="M188.92,260.42v-71.5h-9.64v-10.86h31.4v10.86h-9.27v71.5h-12.5Z"/>
      </g>
    </g>
  </g>
</svg>