<?xml version="1.0" encoding="UTF-8"?>
<svg id="Layer_1" data-name="Layer 1" xmlns="http://www.w3.org/2000/svg" xmlns:xlink="http://www.w3.org/1999/xlink" viewBox="0 0 486.95 200">
  <defs>
    <style>
      .cls-1 {
        fill: url(#linear-gradient);
      }

      .cls-2 {
        fill: #fff;
      }

      .cls-3 {
        fill: url(#linear-gradient-3);
      }

      .cls-4 {
        fill: url(#linear-gradient-4);
      }

      .cls-5 {
        fill: url(#linear-gradient-2);
      }

      .cls-6 {
        fill: url(#linear-gradient-6);
      }

      .cls-7 {
        fill: url(#linear-gradient-5);
      }
    </style>
    <linearGradient id="linear-gradient" x1="131.26" y1="263.72" x2="72.55" y2="-43.81" gradientUnits="userSpaceOnUse">
      <stop offset="0" stop-color="#59cfa2"/>
      <stop offset="1" stop-color="#3200ff"/>
    </linearGradient>
    <linearGradient id="linear-gradient-2" x1="568.99" y1="122.4" x2="216.82" y2="122.4" xlink:href="#linear-gradient"/>
    <linearGradient id="linear-gradient-3" x1="568.99" y1="122.4" x2="216.82" y2="122.4" xlink:href="#linear-gradient"/>
    <linearGradient id="linear-gradient-4" x1="568.99" y1="122.4" x2="216.82" y2="122.4" xlink:href="#linear-gradient"/>
    <linearGradient id="linear-gradient-5" x1="568.99" y1="122.4" x2="216.82" y2="122.4" xlink:href="#linear-gradient"/>
    <linearGradient id="linear-gradient-6" x1="568.99" y1="122.4" x2="216.82" y2="122.4" xlink:href="#linear-gradient"/>
  </defs>
  <rect class="cls-1" width="200" height="200" rx="60.8" ry="60.8"/>
  <path class="cls-2" d="M103.23,132.27c-22.58,8.43-44.82,9.59-45.76,9.64l-.45,.02v1.17c0,8.93,7.24,16.17,16.17,16.17h44.38c14.03,0,25.41-11.38,25.41-25.41,0-8.85-2.16-16.39-5.8-22.83-8.14,8.7-19.5,15.86-33.95,21.25Z"/>
  <path class="cls-2" d="M117.57,47.28h-44.38c-8.93,0-16.17,7.24-16.17,16.17v69.24s85.96-4.17,85.96-60c0-14.03-11.38-25.41-25.41-25.41Zm-31.85,52.72v-23c0-2.97,2.4-5.37,5.37-5.37h14.74c4.66,0,8.44,3.78,8.44,8.44,0,18.55-28.56,19.93-28.56,19.93Z"/>
  <path class="cls-5" d="M261.88,109.09c0,3.17,0,3.99-.51,6.35-.67,2.69-2.51,4.47-6.79,5.7-.53,.15-.89,.65-.89,1.21v.12c0,.57,.38,1.05,.92,1.22,2.67,.82,4.52,2.01,5.53,3.12,.51,.61,.92,1.54,1.23,2.66,.51,2.15,.51,3.07,.51,6.25v11.26c0,4.81-1.64,7.99-3.38,9.63-.92,.82-2.35,1.43-4.3,1.84-1.95,.41-3.48,.61-4.81,.72-1.33,.1-3.28,.1-5.94,.1h-28.67c-1.02,0-2.05,0-2.05-2.05V87.58c0-2.05,1.02-2.05,2.05-2.05h28.67c2.66,0,4.61,0,5.94,.1,1.33,.1,2.87,.31,4.81,.72,1.95,.41,3.38,1.02,4.3,1.84,1.74,1.64,3.38,4.81,3.38,9.63v11.26Zm-16.38-7.17c0-2.05-1.02-2.05-2.05-2.05h-11.03c-1.83,0-3.31,1.48-3.31,3.31v8.74c0,1.83,1.48,3.31,3.31,3.31h11.03c1.02,0,2.05,0,2.05-2.05v-11.26Zm0,29.7c0-2.05-1.02-2.05-2.05-2.05h-11.03c-1.83,0-3.31,1.48-3.31,3.31v8.74c0,1.83,1.48,3.31,3.31,3.31h11.03c1.02,0,2.05,0,2.05-2.05v-11.26Z"/>
  <path class="cls-3" d="M306.93,111.13c-1.02,0-2.05,0-2.05-2.05v-7.17c0-2.05-1.02-2.05-2.05-2.05h-12.29c-1.02,0-2.05,0-2.05,2.05v8.19c0,2.05,0,2.97,2.05,3.38l12.29,3.07c3.28,.82,5.63,1.43,7.07,1.84,2.97,.82,7.27,2.56,8.4,3.79,1.95,2.35,3.38,5.84,2.97,12.49v12.29c0,4.81-1.64,7.99-3.38,9.63-.92,.82-2.36,1.43-4.3,1.84s-3.48,.61-4.81,.72c-1.33,.1-3.28,.1-5.94,.1h-12.29c-2.66,0-4.61,0-5.94-.1-1.33-.1-2.97-.31-4.92-.72-4.53-.96-6.46-3.25-7.26-8.44-.24-1.57-.32-3.17-.32-4.76v-9.54c0-2.05,1.02-2.05,2.05-2.05h12.29c1.02,0,2.05,0,2.05,2.05v7.17c0,2.05,1.02,2.05,2.05,2.05h12.29c1.02,0,2.05,0,2.05-2.05v-8.19c0-2.05,0-2.97-2.05-3.38l-12.29-3.07c-3.28-.82-5.63-1.43-7.17-1.84-2.87-.82-7.17-2.56-8.29-3.79-1.95-2.36-3.38-5.84-2.97-12.49v-12.29c0-4.81,1.64-7.99,3.38-9.63,.92-.82,2.25-1.43,4.2-1.84s3.58-.61,4.92-.72c1.33-.1,3.28-.1,5.94-.1h12.29c2.66,0,4.61,0,5.94,.1,1.33,.1,2.87,.31,4.81,.72s3.38,1.02,4.3,1.84c1.74,1.64,3.38,4.81,3.38,9.63v11.26c0,2.05-1.02,2.05-2.05,2.05h-12.29Z"/>
  <path class="cls-4" d="M374.51,85.53c1.02,0,2.05,0,2.05,2.05v10.24c0,2.05-1.02,2.05-2.05,2.05h-12.08c-1.25,0-2.26,1.01-2.26,2.26v55.09c0,2.05-1.02,2.05-2.05,2.05h-12.29c-1.02,0-2.05,0-2.05-2.05v-55.09c0-1.25-1.01-2.26-2.26-2.26h-12.08c-1.02,0-2.05,0-2.05-2.05v-10.24c0-2.05,1.02-2.05,2.05-2.05h45.06Z"/>
  <path class="cls-7" d="M429.71,157.21c.31,1.95-.41,2.05-2.15,2.05h-11.78c-1.54,0-2.46,.1-2.66-2.05h0c-1.3-7.69-7.96-13.31-15.75-13.31h-2.17c-.59,0-1.09,.43-1.19,1.01l-2.08,12.3c-.31,1.95-.82,2.05-2.76,2.05h-11.78c-1.54,0-2.46,.1-2.05-2.05l11.57-69.63c.31-1.95,1.02-2.05,2.76-2.05h25.7c1.54,0,2.46-.1,2.66,2.05l11.67,69.63Zm-31.75-27.65h9.12c.75,0,1.32-.67,1.19-1.41l-4.61-27.28c-.1-.58-.6-1.01-1.19-1.01h0c-.59,0-1.1,.43-1.19,1.01l-4.51,27.28c-.12,.74,.45,1.41,1.19,1.41Z"/>
  <path class="cls-6" d="M487.77,157.21c.72,2.15-.82,2.05-1.84,2.05h-12.29c-1.64,0-2.46,.1-3.07-2.05l-7.17-21.5h-3.7c-3.05,0-5.52,2.47-5.52,5.52v15.99c0,2.05-1.02,2.05-2.05,2.05h-12.29c-1.02,0-2.05,0-2.05-2.05V87.58c0-2.05,1.02-2.05,2.05-2.05h28.67c2.66,0,4.61,0,5.94,.1,1.33,.1,2.87,.31,4.81,.72,1.95,.41,3.38,1.02,4.3,1.84,1.74,1.64,3.38,4.81,3.38,9.63v25.6c0,5.18-1.66,8.71-4.91,10.51-.98,.55-1.42,1.73-1.07,2.8l6.8,20.48Zm-17.2-55.3c0-2.05-1.02-2.05-2.05-2.05h-6.96c-4.07,0-7.38,3.3-7.38,7.38v11.28c0,1.57,1.27,2.85,2.85,2.85h11.49c1.02,0,2.05,0,2.05-2.05v-17.41Z"/>
</svg>