<?xml version="1.0" encoding="UTF-8"?>
<svg id="Layer_1" data-name="Layer 1" xmlns="http://www.w3.org/2000/svg" viewBox="0 0 200 200">
  <defs>
    <style>
      .cls-1 {
        fill: #fab487;
      }

      .cls-2 {
        fill: #faba89;
      }

      .cls-3 {
        fill: #f9fbfb;
      }

      .cls-4 {
        fill: #fdbb86;
      }

      .cls-5 {
        fill: #fefefe;
      }

      .cls-6 {
        fill: #fecf96;
      }

      .cls-7 {
        fill: #3292fe;
      }

      .cls-8 {
        fill: #246df2;
      }

      .cls-9 {
        fill: #252647;
      }

      .cls-10 {
        fill: #0699fb;
      }

      .cls-11 {
        fill: #066dfe;
      }

      .cls-12 {
        fill: #0899fb;
      }

      .cls-13 {
        fill: #0c99fb;
      }

      .cls-14 {
        fill: #3571f5;
      }

      .cls-15 {
        fill: #2d2844;
      }

      .cls-16 {
        fill: #3471f6;
      }

      .cls-17 {
        fill: #5694f9;
      }

      .cls-18 {
        fill: #2e2844;
      }

      .cls-19 {
        fill: #5294f9;
      }

      .cls-20 {
        fill: #5295f9;
      }
    </style>
  </defs>
  <g id="mcbDH2">
    <g>
      <path class="cls-7" d="M199.93,88.29v24.2c-1.29,3.9-.57,8.06-1.58,12-1.99,3.41-5.58,6.19-4.3,10.9,.03,.38,0,.75-.11,1.12-2.15,2.43-3.42,5.18-3.12,8.52-2.86,6.9-6.55,13.26-12.08,18.42-2.25,.06-3.53,1.9-4.57,3.31-2.87,3.88-6.53,6.84-10.14,9.91-.71,.6-.7,1.65-1.07,2.48-1.91,2.49-3.97,4.72-7.55,4.19-2.3-1.97-3.47-4.75-4.92-7.29-6.23-10.92-15.67-17.92-27.03-22.71-1.76-.74-3.54-.44-5.31-.64-1.01-.53-1.41-1.39-1.36-2.49-.19-2.27,1.24-3.58,2.91-4.66,9.91-6.38,15.32-15.41,16.07-27.19,.13-2,.88-3.46,2.9-4.1,1.66-.52,2.97-1.53,3.83-3.06,2.72-2.78,2.98-5.82,1.01-9.13-.59-.99-1.24-1.98-1.1-3.23-.72-5.17-.68-10.37-.49-15.55,.44-12.45-4.88-22.1-14.32-29.68-2.77-2.23-4.27-4.49-3.83-8.25,.52-4.45-.41-5.07-5.05-4.61-5.61,.55-11.2,.1-16.69-.87-8.22-1.46-15.86,.14-22.95,4.07-11.22,6.21-19.18,15.02-20.75,28.39-.53,4.53-.2,9.09-.26,13.63-.05,4.28,.11,8.57-.56,12.82,.14,1.07-.26,1.99-.83,2.85-2.26,3.42-1.86,6.69,.6,9.82,.72,1.32,1.79,2.33,3.22,2.65,2.8,.63,3.58,2.45,3.77,5.08,.76,10.28,5.41,18.44,13.53,24.78,2.13,1.66,5.34,2.56,5.42,6.12,.06,1.1-.32,1.97-1.29,2.55-6.17-.2-10.99,3.17-15.91,6.17-8.63,5.27-14.54,13-19.3,21.73-.55,1-.87,2.19-2.05,2.74-3.63,.66-5.71-1.58-7.65-4.08-1.11-2.77-13.21-14.78-15.99-15.81-4.28-3.56-6.87-8.43-9.52-13.11C5.52,139.59,.74,128.46,.75,115.84c0-1.09-.04-2.32-.69-3.35v-24.98c.74-1.83,.68-3.77,.81-5.7,1.06-16.46,8.67-30.21,18.04-43.2,.45-.63,1.08-1.13,1.77-1.51,3.22-1.19,5.63-3.38,7.24-6.35,1.55-2.86,4.64-3.99,6.75-6.24,1.11-1.17,1.99-2.29,2.42-3.8,3.75-4.28,8.71-6.94,13.54-9.67C61.84,4.68,73.77,.55,86.84,.46c.52,0,1.03,0,1.45-.39h23.42c3.11,.97,6.38,.75,9.56,1.14,15.45,1.87,28.48,9.09,40.65,18.24,.41,.31,.7,.77,.96,1.21,.33,2.1,1.76,3.39,3.39,4.51,3.86,2.65,6.25,6.71,9.54,9.91,1,.97,2.04,1.51,3.25,1.93,5.36,5.01,8.98,11.16,11.72,17.89-.18,3.24,.76,6.07,3.07,8.41,.14,.35,.2,.71,.19,1.09-1.28,4.79,2.24,7.73,4.32,11.22,.94,4.18,.42,8.53,1.55,12.68Z"/>
      <path class="cls-11" d="M118.61,152.34c.37-1.59,.91-2.52,2.93-1.79,14.96,5.39,26.09,15.11,33.36,29.23,.45,.88,.42,2,.61,3.01,.5,1.55-.44,2.58-1.52,3.25-2.95,1.84-5.73,4.04-9.25,4.8-3.49-1.02-5.84,2.19-8.99,2.44-3.73-.26-7.07,.79-10.2,2.82-2.57,1.66-5.62,1.86-8.54,1.82-4.76-.05-9.45,.08-13.9,2.01h-10.93c-1.26-1.58-3.03-1.1-4.66-1.17-5.92-.25-11.45-1.18-17.04-3.89-4.46-2.16-9.73-3.49-14.94-3.97-3.52-.66-6.29-2.86-9.25-4.64-1.2-.72-2.3-1.75-1.8-3.48,.37-4.52,3.31-7.89,5.7-11.28,6.98-9.93,16.54-16.63,27.93-20.81,2.01-.74,2.92-.33,3.29,1.66,1.84,1.01,1.5,2.85,1.67,4.48,.79,7.34,4.38,12.78,11.38,15.29,7.28,2.6,13.46,.19,18.56-5.35,2.58-2.8,3.43-6.31,3.9-9.95,.21-1.63-.15-3.46,1.69-4.48Z"/>
      <path class="cls-5" d="M144.75,189.12c3.86-1.66,7.49-3.7,10.77-6.34,2.45-1.03,4.39-2.76,6.32-4.52,5.45-5.18,10.49-10.77,16.06-15.84,4.5-5.42,8.33-11.27,11.25-17.7,.71-3.18,2.24-6,3.9-8.76v.03c-.1-4.35,2.31-7.91,3.72-11.79,1.8-3.71,.79-8.18,3.17-11.73,0,28.24-.04,56.47,.07,84.71,0,2.33-.47,2.81-2.8,2.8-28.76-.1-57.51-.07-86.27-.07-.25-1.18,.54-1.86,1.44-1.82,8.21,.3,15.25-4.18,23.03-5.59,3.44-.23,5.91-3.14,9.34-3.4Z"/>
      <path class="cls-5" d="M199.93,88.29c-2.21-3.88-1.28-8.55-3.16-12.52-1.43-3.87-3.82-7.43-3.74-11.78v.03c-1.64-2.76-3.17-5.58-3.89-8.77-2.82-6.21-6.44-11.91-10.88-17.1-2.51-2.34-5.15-4.47-6.98-7.54-1.5-2.52-4.63-3.55-6.6-5.83-.89-1.03-1.95-1.99-2.85-3.06-13.01-10.61-27.88-17.1-44.34-20.1-1.96-.36-4.11-.11-5.79-1.56C140.21,.07,168.7,.1,197.2,0c2.33,0,2.81,.47,2.8,2.8-.1,28.5-.07,56.99-.07,85.49Z"/>
      <path class="cls-5" d="M21.73,38.16C11.11,51.18,4.63,66.06,1.62,82.53c-.31,1.7,.02,3.65-1.55,4.98C.07,59.27,.1,31.03,0,2.8,0,.47,.47,0,2.8,0,31.3,.1,59.79,.07,88.29,.07c-2.94,1.88-6.42,1.54-9.63,2.28-14.97,3.44-28.58,9.61-40.49,19.39-2.23,2.64-4.66,5.02-7.59,6.95-2.6,1.71-3.59,4.94-6.02,6.95-.95,.78-1.91,1.66-2.83,2.53Z"/>
      <path class="cls-5" d="M44.48,182.79c3.28,2.63,6.91,4.68,10.77,6.34,5.13,1.67,10.21,3.51,15.25,5.37,5.29,1.95,10.59,3.13,16.09,3.89,1.04,.14,2.53-.37,2.48,1.55-28.69,0-57.39-.03-86.08,.06-2.43,0-3-.54-2.99-2.98,.1-28.17,.06-56.35,.06-84.52,1.62,1.3,1.25,3.27,1.55,4.96,3.02,16.74,9.78,31.76,20.48,44.98,1.87,.6,2.9,2.29,3.87,3.67,3.37,4.79,8.65,7.61,12.19,12.17,1.93,1.75,3.87,3.48,6.32,4.51Z"/>
      <path class="cls-8" d="M135.92,192.85c-7.23,3.18-14.78,5.21-22.6,6.26-.83,.11-1.85-.2-2.38,.82h-7.81c3.23-3.21,6.77-4.25,11.49-3.29,3.85,.79,7.98-.16,11.58-2.33,2.98-1.8,6.26-2.47,9.73-2.18,.52,.24,.52,.48,0,.71Z"/>
      <path class="cls-16" d="M89.07,199.93c-4.77-1.06-9.59-1.96-14.31-3.22-6.77-1.8-13.47-3.87-19.5-7.59,.77,.02,1.71-.25,2.29,.1,4.82,2.83,10.66,2.67,15.52,5.4,4.67,2.61,9.9,2.68,15.06,2.97,1.76,.1,3.84-.39,4.07,2.34h-3.12Z"/>
      <path class="cls-6" d="M82.57,149.74c-3.33-3.06-7.49-5.01-10.56-8.48-5.71-6.46-9.21-13.73-9.43-22.43-.05-1.84-.21-3.17-2.55-3.53-1.72-.26-3.23-1.45-4.54-2.71-.41-1.95,1.17-1.85,2.12-1.68,2.73,.47,3.08-1.07,3.1-3.15,.05-3.64-.05-7.28-.12-10.93,.18-3.25,.06-6.51,.23-9.76,.08-1.45,.19-2.96,1.75-3.65,1.56-.69,2.7,.31,3.86,1.18,10.48,7.82,21.91,9.8,34.24,5.21,6.9-2.57,12.39-6.99,16.13-13.46,2.61-4.52,4.44-4.89,8.72-1.85,3.82,2.71,7.33,5.81,11.05,8.65,2.22,1.7,2.67,4.01,2.68,6.58,0,2.34,.04,4.68,.16,7.02-.06,3.5-.16,7.01-.14,10.52,.01,2.29,.13,4.3,3.38,3.66,.74-.14,1.95-.03,1.73,1.41-5.67,2.37-6.86,6.97-7.86,12.69-1.69,9.69-7.57,17.17-16.05,22.4-1.08,.67-2.38,1.11-2.98,2.4-1.09,1.53-2.34,2.92-2.8,4.88-.3,1.26-1.19,2.3-2.83,1.57-1.43-1.78-3.1-2.16-5.43-1.77-4.32,.73-8.75,.74-13.07-.03-2.22-.4-3.74,.11-5.07,1.75-1.88,.85-2.69-.36-3.07-1.83-.47-1.83-1.41-3.3-2.64-4.66Z"/>
      <path class="cls-9" d="M138.23,97.08c-1.62-2.63-.42-5.52-.72-8.27-.15-1.41,0-2.67-1.42-3.73-4.57-3.42-9.01-7.01-13.48-10.57-1.11-.88-1.83-1.45-2.92,.29-13.62,21.82-35.95,25.59-56.81,9.5-1.21,4.26,.74,8.72-1.12,12.78-1.41,1.69-2.81,3.44-5.36,1.87-.13-9.1-.6-18.22,.21-27.28,1.89-21.14,25.44-36.06,42.81-33.99,7.99,.95,15.97,2.55,23.99,.32,1.37-.38,2.03,.37,2.21,1.49,.25,1.53,.7,3.24,.26,4.62-1.36,4.27,.87,6.47,3.87,8.95,9.47,7.81,14.47,17.81,13.97,30.32-.21,5.19-.09,10.4-.13,15.6-2.56,1.57-3.95-.2-5.37-1.89Z"/>
      <path class="cls-3" d="M112.57,156.32c.27-1.59,.31-3.27,.87-4.75,.66-1.75,2.25-2.17,4.04-1.75,.37,.84,.75,1.68,1.12,2.52,1,8.8-1.78,15.88-9.69,20.36-11.81,6.69-26.96-1.73-27.66-15.3-.09-1.68,.09-3.36,.14-5.05,.39-.87,.78-1.74,1.17-2.61,2.65-.52,4.04,.57,4.29,3.25,.1,1.11,.37,2.21,.57,3.32,1.02,.24,1.44,1.01,1.71,1.92,1.62,5.4,5.58,8.42,10.86,8.42,5.28,0,9.25-3.02,10.86-8.42,.27-.91,.69-1.68,1.71-1.92Z"/>
      <path class="cls-2" d="M56.41,98.95c1.76-.71,3.22-2.25,5.36-1.87,1.53,4.91,.55,9.94,.66,14.91,.04,1.81-1.21,1.83-2.72,1.54-1.42-.27-2.49-2.15-4.22-.95-3.37-5.99-3.19-8.74,.92-13.63Z"/>
      <path class="cls-2" d="M138.23,97.08c2.14-.36,3.62,1.15,5.37,1.89,4.14,4.9,4.33,8.31,.77,13.35-.12-.05-.25-.18-.35-.15-6.55,1.62-6.63,1.62-6.52-5.49,.05-3.2-.7-6.49,.72-9.6Z"/>
      <path class="cls-20" d="M21.73,38.16c4.57-6.38,10.02-11.9,16.44-16.43,.21,3.78-3.51,4.78-5.48,6.27-3.12,2.37-4.45,6-7.46,8.35-1.17,.91-2.14,1.57-3.5,1.81Z"/>
      <path class="cls-19" d="M161.84,21.73c6.4,4.56,11.86,10.05,16.43,16.43-3.63-.29-5.6-3.47-6.96-5.76-1.88-3.19-4.9-4.68-7.28-7-1.21-1.17-2.04-2.09-2.19-3.67Z"/>
      <path class="cls-20" d="M38.17,178.28c-6.23-4.39-11.5-9.76-16.06-15.84,3.7-.72,4.87,2.95,6,4.69,2.11,3.27,5.24,5.09,7.89,7.49,1.27,1.15,2.01,2.09,2.18,3.65Z"/>
      <path class="cls-19" d="M177.89,162.44c-4.58,6.06-9.83,11.45-16.06,15.84-.25-3.78,3.47-4.72,5.42-6.24,3.19-2.48,4.9-5.98,7.68-8.64,1.03-.99,1.78-1.2,2.95-.95Z"/>
      <path class="cls-17" d="M193.03,63.99c1.82,3.75,3.15,7.65,3.74,11.78-2.22-3.62-5.52-6.89-3.74-11.78Z"/>
      <path class="cls-17" d="M196.76,124.22c-.57,4.14-1.92,8.04-3.73,11.79-1.78-4.89,1.53-8.16,3.73-11.79Z"/>
      <path class="cls-13" d="M34.07,32.16c-.25,.98-.9,1.73-1.99,1.9-.97,.15-1.45-.49-1.22-1.37,.27-1.04,1.01-1.78,2.15-1.83,.74-.03,1.14,.42,1.06,1.3Z"/>
      <path class="cls-17" d="M189.14,55.26c1.72,2.73,3.18,5.59,3.9,8.77-2.78-2.26-3.9-5.26-3.9-8.77Z"/>
      <path class="cls-17" d="M193.04,135.98c-.72,3.18-2.18,6.03-3.9,8.76,0-3.5,1.12-6.5,3.9-8.76Z"/>
      <path class="cls-12" d="M34.06,167.68c.12,.95-.24,1.48-.98,1.47-1.14-.02-1.9-.7-2.15-1.8-.17-.75,.34-1.26,1.03-1.3,1.22-.07,1.74,.83,2.1,1.63Z"/>
      <path class="cls-10" d="M168.09,168.45c-.86-.02-1.36-.31-1.16-.9,.13-.39,.67-.78,1.1-.89,.55-.14,1.07,.24,.89,.85-.12,.41-.62,.71-.83,.93Z"/>
      <path class="cls-14" d="M135.92,192.85c0-.24,0-.47,0-.71,2.86-1.23,5.33-3.62,8.82-3.01-2.73,1.73-5.53,3.34-8.83,3.72Z"/>
      <path class="cls-4" d="M112.57,156.32c-.33,7.1-5.92,12.53-12.78,12.41-6.81-.11-12.08-5.41-12.36-12.42-.33-3.75,1.04-5.01,4.9-3.99,5.05,1.34,10.29,1.34,15.34,0,3.88-1.03,5.22,.26,4.9,4Z"/>
      <path class="cls-1" d="M100.17,139.02c-4.95,.33-8.46-2.14-11.51-5.54-.82-.91-1.51-2.01-.33-3.03,1.07-.92,1.86,.09,2.65,.74,7.93,6.54,10.27,6.55,17.96,.07,.87-.73,1.75-1.9,2.92-.61,.87,.96,.24,1.92-.45,2.76-2.95,3.56-6.49,5.91-11.25,5.61Z"/>
      <path class="cls-15" d="M82.85,109.4c-2.91-.45-4.73-1.89-4.64-4.82,.09-2.89,1.9-4.54,4.73-4.48,2.86,.06,4.55,1.82,4.49,4.7-.06,2.89-1.94,4.28-4.58,4.61Z"/>
      <path class="cls-18" d="M121.88,104.79c-.37,2.81-1.91,4.54-4.79,4.49-2.89-.05-4.56-1.83-4.53-4.68,.04-2.87,1.82-4.57,4.68-4.52,2.86,.05,4.36,1.84,4.64,4.7Z"/>
    </g>
  </g>
</svg>